<?xml version="1.0" encoding="UTF-8"?>
<svg width="277px" height="380px" viewBox="0 0 277 380" version="1.1" xmlns="http://www.w3.org/2000/svg" xmlns:xlink="http://www.w3.org/1999/xlink">
    <!-- Generator: Sketch 53 (72520) - https://sketchapp.com -->
    <title>Group</title>
    <desc>Created with Sketch.</desc>
    <g id="Page-1" stroke="none" stroke-width="1" fill="none" fill-rule="evenodd">
        <g id="Group">
            <polygon id="Path" fill="#000000" points="30 168 30 65 63 65 63 30 195.910156 30 238 65 277 65 277 204 207 204 207 274 137 274 137 204 170 204 170 168 207 168 207 65 101 65 101 168"></polygon>
            <polygon id="Path-2" fill="#000000" points="137 312 137 380 207 380 207 312"></polygon>
            <polygon id="Path" fill="#FFFFFF" points="0 138 0 35 33 35 33 0 208 0 208 35 247 35 247 174 177 174 177 244 107 244 107 174 140 174 140 138 177 138 177 35 71 35 71 138"></polygon>
            <polygon id="Path-2" fill="#FFFFFF" points="107 282 107 350 177 350 177 282"></polygon>
        </g>
    </g>
</svg>