<?xml version="1.0" encoding="UTF-8"?><svg width="200" height="200" version="1.1" viewBox="0 -371.429 200 200" xmlns="http://www.w3.org/2000/svg" xmlns:xlink="http://www.w3.org/1999/xlink"><!--Generated by IJSVG (https://github.com/iconjar/IJSVG)--><path d="M23.0022,-44.7154c-0.066964,-0.290178 -0.226004,-0.510602 -0.47712,-0.661272c-0.251116,-0.15067 -0.521764,-0.192522 -0.811942,-0.125558c-2.91295,0.691964 -5.15067,1.03795 -6.71317,1.03795c-1.5625,0 -3.80022,-0.345982 -6.71317,-1.03795c-0.290178,-0.066964 -0.560826,-0.025112 -0.811942,0.125558c-0.251116,0.15067 -0.410156,0.371094 -0.47712,0.661272c-0.066964,0.290179 -0.025112,0.560826 0.125558,0.811942c0.15067,0.251116 0.371094,0.410156 0.661272,0.477121c2.16518,0.513393 3.85603,0.837053 5.07255,0.970982c-0.022322,1.76339 -0.108817,3.26451 -0.259487,4.50335c-0.150669,1.23884 -0.298549,2.10658 -0.443638,2.60324c-0.145089,0.496651 -0.373884,1.14118 -0.686384,1.93359l-0.15067,0.351563c-0.111607,0.279018 -0.106026,0.552455 0.016741,0.820312c0.122768,0.267858 0.323661,0.45759 0.602679,0.569197c0.100446,0.044643 0.228795,0.066964 0.385045,0.066964c0.491071,0 0.825892,-0.228795 1.00446,-0.686384l0.133928,-0.334821c0.602679,-1.55134 0.998884,-2.99665 1.18862,-4.33594h0.703124c0.189733,1.33929 0.585938,2.7846 1.18862,4.33594l0.133928,0.334821c0.178572,0.457589 0.513393,0.686384 1.00446,0.686384c0.15625,0 0.284599,-0.022321 0.385045,-0.066964c0.279018,-0.111607 0.479911,-0.301339 0.602679,-0.569197c0.122767,-0.267857 0.128348,-0.541294 0.016741,-0.820312l-0.15067,-0.351563c-0.3125,-0.79241 -0.541295,-1.43694 -0.686384,-1.93359c-0.145089,-0.496652 -0.292969,-1.3644 -0.443638,-2.60324c-0.15067,-1.23884 -0.237165,-2.73996 -0.259487,-4.50335c1.21652,-0.133929 2.90737,-0.457589 5.07255,-0.970982c0.290178,-0.066965 0.510602,-0.226005 0.661272,-0.477121c0.15067,-0.251116 0.192522,-0.521763 0.125558,-0.811942Zm-5.85938,-2.42746c0,-0.591518 -0.209263,-1.09654 -0.62779,-1.51507c-0.418527,-0.418527 -0.923549,-0.62779 -1.51507,-0.62779c-0.591518,0 -1.09654,0.209263 -1.51507,0.62779c-0.418527,0.418527 -0.62779,0.923549 -0.62779,1.51507c0,0.591518 0.209263,1.09654 0.62779,1.51507c0.418527,0.418527 0.923549,0.62779 1.51507,0.62779c0.591518,0 1.09654,-0.209263 1.51507,-0.62779c0.418527,-0.418527 0.62779,-0.923549 0.62779,-1.51507Zm9.64286,6.42857c0,1.59598 -0.30971,3.12221 -0.929129,4.57868c-0.61942,1.45647 -1.45647,2.71205 -2.51116,3.76674c-1.05469,1.05469 -2.31027,1.89174 -3.76674,2.51116c-1.45647,0.61942 -2.9827,0.92913 -4.57868,0.92913c-1.59598,0 -3.12221,-0.30971 -4.57868,-0.92913c-1.45647,-0.61942 -2.71205,-1.45647 -3.76674,-2.51116c-1.05469,-1.05469 -1.89174,-2.31027 -2.51116,-3.76674c-0.619419,-1.45647 -0.929129,-2.9827 -0.929129,-4.57868c0,-1.59598 0.30971,-3.12221 0.929129,-4.57868c0.61942,-1.45647 1.45647,-2.71205 2.51116,-3.76674c1.05469,-1.05469 2.31027,-1.89174 3.76674,-2.51116c1.45647,-0.619419 2.9827,-0.929129 4.57868,-0.929129c1.59598,0 3.12221,0.30971 4.57868,0.929129c1.45647,0.61942 2.71205,1.45647 3.76674,2.51116c1.05469,1.05469 1.89174,2.31027 2.51116,3.76674c0.619419,1.45647 0.929129,2.9827 0.929129,4.57868Zm-11.7857,-12.8571c-1.74107,0 -3.40402,0.340402 -4.98884,1.02121c-1.58482,0.680803 -2.95201,1.59598 -4.10156,2.74554c-1.14955,1.14955 -2.06473,2.51674 -2.74554,4.10156c-0.680803,1.58482 -1.02121,3.24777 -1.02121,4.98884c0,1.74107 0.340402,3.40402 1.02121,4.98884c0.680804,1.58482 1.59598,2.95201 2.74554,4.10156c1.14955,1.14955 2.51674,2.06473 4.10156,2.74554c1.58482,0.680803 3.24777,1.0212 4.98884,1.0212c1.74107,0 3.40402,-0.340402 4.98884,-1.0212c1.58482,-0.680804 2.95201,-1.59598 4.10156,-2.74554c1.14955,-1.14955 2.06473,-2.51674 2.74554,-4.10156c0.680803,-1.58482 1.02121,-3.24777 1.02121,-4.98884c0,-1.74107 -0.340402,-3.40402 -1.02121,-4.98884c-0.680804,-1.58482 -1.59598,-2.95201 -2.74554,-4.10156c-1.14955,-1.14955 -2.51674,-2.06473 -4.10156,-2.74554c-1.58482,-0.680804 -3.24777,-1.02121 -4.98884,-1.02121Zm15,12.8571c0,2.03125 -0.396205,3.97322 -1.18862,5.82589c-0.792411,1.85268 -1.85826,3.44866 -3.19755,4.78795c-1.33929,1.33929 -2.93527,2.40513 -4.78795,3.19754c-1.85268,0.792411 -3.79464,1.18862 -5.82589,1.18862c-2.03125,0 -3.97321,-0.396205 -5.82589,-1.18862c-1.85268,-0.79241 -3.44866,-1.85826 -4.78795,-3.19754c-1.33929,-1.33929 -2.40513,-2.93527 -3.19755,-4.78795c-0.792411,-1.85268 -1.18862,-3.79464 -1.18862,-5.82589c0,-2.03125 0.396205,-3.97321 1.18862,-5.82589c0.792411,-1.85268 1.85826,-3.44866 3.19755,-4.78795c1.33928,-1.33929 2.93527,-2.40513 4.78795,-3.19754c1.85268,-0.79241 3.79464,-1.18862 5.82589,-1.18862c2.03125,0 3.97321,0.396206 5.82589,1.18862c1.85268,0.792411 3.44866,1.85826 4.78795,3.19754c1.33929,1.33929 2.40513,2.93527 3.19755,4.78795c0.792411,1.85268 1.18862,3.79464 1.18862,5.82589Z" transform="scale(6.66667)" fill="#268BD2"></path></svg>